<?xml version="1.0" encoding="iso-8859-1"?>
<!-- Generator: Adobe Illustrator 16.0.0, SVG Export Plug-In . SVG Version: 6.00 Build 0)  -->
<!DOCTYPE svg PUBLIC "-//W3C//DTD SVG 1.1//EN" "http://www.w3.org/Graphics/SVG/1.1/DTD/svg11.dtd">
<svg version="1.1" id="Capa_1" xmlns="http://www.w3.org/2000/svg" xmlns:xlink="http://www.w3.org/1999/xlink" x="0px" y="0px"
	 width="192.35px" height="192.351px" viewBox="0 0 192.35 192.351" style="enable-background:new 0 0 192.35 192.351;"
	 xml:space="preserve">
<g>
	<path d="M164.048,42.791c-0.607-11.241-0.876-28.009-10.819-35.468c-1.241-0.932-2.588-0.845-3.706-0.222
		c-4.771-5.421-17.467-4.929-23.969-5.576c-16.169-1.61-32.524-1.849-48.748-1.166C71.328,0.59,33.37,2.003,33.007,14.019
		c-0.208,0.185-0.398,0.405-0.538,0.705c-1.933,4.147-0.906,9.112-0.859,13.592c0.107,10.184,0.224,20.365,0.239,30.551
		c0.023,15.589-0.367,30.918-1.51,46.469c-1.294,17.615-2.644,35.258-2.523,52.934c0.032,4.682-0.617,15.31,2.422,21.465
		c-0.081,0.472-0.083,0.96,0.036,1.41c2.738,10.418,21.578,9.772,29.85,10.334c27.884,1.895,56.722,0.49,84.497-2.182
		c0.75-0.072,1.377-0.318,1.909-0.662c1.039,0.352,2.234,0.282,3.257-0.186c10.595-4.857,9.786-28.127,10.635-37.549
		c1.278-14.213,1.873-28.403,2.63-42.655C164.21,86.459,165.225,64.597,164.048,42.791z M146.06,57.608
		c0.022-4.582-0.011-9.165-0.163-13.749c3.15,3.348,6.211,6.779,9.049,10.416c0.365,0.468,0.832,0.666,1.309,0.671
		c-0.032,1.704-0.055,3.296-0.039,4.702c0.021,2.098-0.005,4.196-0.019,6.295c-1.113-0.611-2.241-1.2-3.266-1.881
		C150.32,62.322,148.066,60.017,146.06,57.608z M147.245,12.844c0.114-0.004,0.21-0.043,0.319-0.057
		c0.188,0.325,0.418,0.639,0.74,0.919c4.453,3.872,6.507,10.717,7.417,18.219c-2.429-2.567-5.531-4.826-7.752-7
		c-4.362-4.269-8.873-8.684-12.658-13.577C139.359,12.194,143.428,12.987,147.245,12.844z M125.555,9.643
		c2.066,0.186,4.208,0.573,6.376,1.01c3.265,5.131,7.354,9.797,11.356,14.3c3.511,3.949,7.879,10.247,12.922,12.76
		c0.209,3.915,0.21,7.848,0.152,11.495c-11.009-15.213-27.054-25.969-39.254-40.199C119.926,9.198,122.743,9.389,125.555,9.643z
		 M113.104,8.746c0.034,0.067,0.041,0.137,0.09,0.203c7.93,10.688,17.73,19.701,27.104,29.122c-0.798-0.069-1.594-0.065-2.345,0.071
		c-0.097-0.782-0.495-1.543-1.199-2.014c-2.437-1.63-5.443-2.49-8.71-2.891c-4.93-5.086-9.872-10.156-14.878-15.163
		c-0.852-1.333-2.039-2.453-3.42-3.37c-2.178-2.151-4.367-4.289-6.574-6.409C106.483,8.396,109.794,8.558,113.104,8.746z
		 M102.931,30.227c0.862-0.088,1.76-0.212,2.659-0.38c-0.306,0.431-0.368,1.026,0.116,1.541c0.945,1.007,1.966,1.923,3.005,2.821
		c-2.272,0.3-4.458,0.585-6.363,0.757c-1.48,0.133-2.95,0.248-4.428,0.38c-2.848-2.463-5.684-4.905-8.479-7.369
		C93.337,30.281,99.144,30.617,102.931,30.227z M90.462,21.146c-0.243-2.573,2.349-3.895,5.062-4.513
		c0.179,0.049,0.366,0.08,0.574,0.059c4.738-0.468,9.468-0.689,13.056,3.045c3.649,3.799-3.689,5.251-6.224,5.531
		C99.731,25.621,90.907,25.853,90.462,21.146z M107.475,29.619c-0.075-0.068-0.156-0.095-0.234-0.141
		c2.436-0.654,4.732-1.785,6.203-3.842c0.255-0.356,0.445-0.724,0.608-1.096c2.582,2.852,5.219,5.655,7.896,8.419
		c-3.112,0.066-6.288,0.393-9.349,0.764C110.861,32.393,109.105,31.079,107.475,29.619z M99.456,8.202
		c1.188,1.327,2.39,2.643,3.57,3.977c-1.438-0.204-2.887-0.227-4.267-0.045c0.019-0.343-0.052-0.686-0.371-0.967
		c-0.697-0.613-1.428-0.831-2.267-1.188c-0.917-0.39-1.747-0.976-2.493-1.629c-0.083-0.072-0.149-0.16-0.229-0.236
		C95.418,8.119,97.437,8.161,99.456,8.202z M89.944,8.06c0.485,0.799,1.04,1.56,1.707,2.266c0.723,0.764,1.75,1.654,2.861,2.305
		c-1.594,0.075-3.17,0.422-4.713,1.179c-1.312,0.643-2.362,1.625-3.12,2.795c-0.381-0.236-0.789-0.453-1.21-0.695
		c-1.501-0.862-2.916-1.874-4.299-2.912c-0.954-0.716-1.908-1.438-2.845-2.177c-0.517-0.409-0.793-0.314-1.211-0.675
		c-0.948-0.818-2.199,0.425-1.373,1.373c0.366,0.42,0.251,0.664,0.722,1.166c0.902,0.964,1.826,1.889,2.824,2.754
		c1.507,1.307,3.938,3.812,6.23,4.382c-0.052,0.338-0.154,0.664-0.165,1.011c-0.061,1.919,0.477,3.46,1.379,4.719
		C80.771,20.166,75.125,14.5,70.191,7.956C78.122,7.731,85.523,7.962,89.944,8.06z M67.615,8.045
		c6.202,10.476,14.777,20,24.316,27.812c-1.939,0.164-3.886,0.35-5.824,0.499c-9.622-8.321-18.578-16.681-25.647-27.468
		c-0.103-0.156-0.223-0.27-0.348-0.362C62.58,8.303,65.107,8.149,67.615,8.045z M58.522,8.686c-0.352,0.345-0.52,0.878-0.222,1.466
		c5.246,10.367,13.772,18.783,22.383,26.594c-2.176,0.139-4.352,0.264-6.53,0.359c-1.524-1.092-3.231-2.012-4.676-3.183
		c-2.574-2.088-4.795-4.622-6.993-7.09c-4.773-5.361-9.026-11.157-13.774-16.542C51.664,9.563,55.018,9.053,58.522,8.686z
		 M46.442,10.895c0.001,0.268,0.07,0.544,0.274,0.798c4.961,6.169,9.618,12.572,14.79,18.574c1.687,1.959,3.921,4.74,6.428,6.995
		c-1.817,0.031-3.63,0.097-5.451,0.078c-1.555-1.868-3.576-3.516-5.233-5.188c-2.878-2.903-5.725-5.838-8.602-8.742
		c-3.038-3.067-5.916-6.27-9.342-8.807C40.892,13.035,43.395,11.832,46.442,10.895z M38.217,15.988
		c2.087,3.167,4.744,5.925,7.33,8.806c2.743,3.056,5.521,6.079,8.305,9.097c0.937,1.014,1.882,2.161,2.86,3.285
		c-0.423-0.019-0.845-0.021-1.268-0.044c-1.359-0.072-2.19,0.915-2.415,2.033c-0.624-2.554-4.098-3.261-5.364-0.96
		c-0.284-0.189-0.564-0.384-0.84-0.58c-1.875-1.338-3.491-3.121-5.041-4.807c-0.881-0.958-1.748-1.964-2.597-2.994
		c0.029-4.167,0.287-9.43-1.322-13.226C37.962,16.387,38.096,16.19,38.217,15.988z M39.504,51.037
		c0.653,0.723,1.295,1.455,2.02,2.119c0.972,0.89,2.166,1.861,3.446,2.545c-0.12,3.406-0.079,6.845,0.051,10.28
		c-0.183-0.129-0.391-0.267-0.573-0.387c-0.875-0.576-1.619-1.364-2.334-2.119c-0.867-0.916-1.687-1.879-2.493-2.854
		c-0.003-0.586,0.01-1.168,0.007-1.755C39.611,56.256,39.535,53.648,39.504,51.037z M42.691,50.962
		c-1.198-1.019-2.249-2.2-3.242-3.427c-0.061-4.291-0.119-8.582-0.203-12.873c1.04,1.264,2.114,2.48,3.189,3.636
		c0.775,0.833,2.505,2.333,4.253,3.27c-0.812,3.591-1.304,7.278-1.555,11.023C44.291,52.111,43.454,51.612,42.691,50.962z
		 M39.476,78.239c1.268,1.068,2.735,2.144,4.167,2.07c0.932-0.049,1.651-1.066,1.108-1.931c-0.968-1.543-3.192-2.296-4.669-3.277
		c-0.175-0.117-0.342-0.248-0.516-0.367c0.045-3.145,0.031-6.304,0.037-9.457c0.802,0.916,1.631,1.806,2.524,2.627
		c0.771,0.708,1.952,1.271,3.019,1.304c0.311,5.988,0.82,11.933,1.138,17.644c0.158,2.831,0.284,5.65,0.419,8.473
		c-2.034-2.678-5.174-6.416-7.469-7.695C39.364,84.498,39.41,81.368,39.476,78.239z M39.321,90.244
		c1.122,1.216,2.08,2.583,3.063,3.91c1.386,1.87,2.588,4.257,4.54,5.604c0.205,4.803,0.372,9.602,0.462,14.397
		c-1.7-1.238-3.667-2.321-5.156-3.554c-1.45-1.199-2.834-2.478-4.2-3.774c0.197-2.672,0.393-5.347,0.587-8.017
		c0.213-2.928,0.371-5.849,0.509-8.769C39.189,90.11,39.257,90.175,39.321,90.244z M37.766,110.438
		c1.017,0.984,2.04,1.961,3.104,2.9c1.833,1.614,4.12,3.811,6.594,4.582c0.036,3.615,0.027,7.23-0.047,10.848
		c-0.202-0.133-0.4-0.26-0.602-0.4c-1.402-0.975-2.633-2.206-3.822-3.421c-2.233-2.282-4.076-4.942-5.729-7.675
		C37.427,114.992,37.598,112.715,37.766,110.438z M38.649,180.743c-0.16-3.345-0.536-6.667-0.962-9.989
		c1.195,1.307,2.455,2.443,2.961,2.969c3.11,3.226,6.392,6.724,9.812,9.971C45.891,183.266,41.576,182.406,38.649,180.743z
		 M57.068,184.055c-3.172-3.25-7.061-6.082-10.347-8.996c-0.668-0.594-7.106-5.799-9.54-8.19c-0.561-4.181-1.098-8.388-1.353-12.666
		c5.35,5.638,10.757,11.228,16.237,16.726c3.953,3.965,8.215,8.918,12.836,13.103C62.571,184.078,59.881,184.114,57.068,184.055z
		 M72.611,183.928c-5.553-5.516-12.443-10.365-18.047-15.502c-6.346-5.818-12.578-11.754-18.852-17.646
		c-0.014-0.797-0.052-1.585-0.038-2.387c0.065-3.733,0.205-7.465,0.373-11.195c5.311,10.586,14.525,19.458,22.917,27.486
		c6.622,6.336,14.503,13.896,22.902,19.199C78.782,183.902,75.697,183.917,72.611,183.928z M90.332,183.803
		C71.357,168.02,49.531,155.66,36.741,133.54c-0.135-0.231-0.306-0.362-0.486-0.45c0.202-3.822,0.474-7.642,0.732-11.461
		c1.185,1.875,2.518,3.651,3.982,5.344c1.624,1.879,3.86,4.336,6.363,5.312c-0.147,4.533-0.39,9.072-0.78,13.623
		c-0.228,2.664,3.952,3.132,4.59,0.621c4.058-15.953,4.314-32.391,3.604-48.764c-0.818-18.837-0.233-38.082-1.509-56.823
		c0.282,0.572,0.771,1.035,1.53,1.201c14.107,3.1,28.87,1.699,43.135,0.534c11.405-0.932,24.969,0.663,36.208-1.429
		c-0.483,1.348-0.095,2.761,1.172,3.574c7.909,5.071,2.149,34.554,1.577,44.008c-0.921,15.219-5.665,34.684-3.929,50.834
		c-0.713-0.062-1.39,0.93-0.799,1.686c0.396,0.506,0.828,0.98,1.233,1.478c0.197,1.168,0.43,2.315,0.709,3.438
		c-5.847-2.559-12.731-1.641-19.029-1.865c-10.651-0.377-21.299-0.812-31.959-0.732c-10.388,0.079-20.904,0.137-30.598,2.28
		c-0.179,0.013-0.339,0.065-0.484,0.159c-0.494,0.219-0.699,0.652-0.657,1.111c-0.041,0.461,0.163,0.894,0.657,1.111
		c0.142,0.092,0.297,0.143,0.469,0.158c2.074,0.459,4.195,0.797,6.334,1.086c5.649,5.992,13.874,13.797,22.222,15.426
		c-1.535,3.703-0.651,7.859,3.89,10.572c2.688,1.605,5.966,2.205,9.228,1.984c1.597,1.344,3.201,2.68,4.777,4.049
		c0.698,0.607,1.389,1.299,2.083,2.002C97.448,183.686,93.891,183.76,90.332,183.803z M83.86,160.623
		c-0.095,0.169-0.153,0.348-0.193,0.528c-0.696,0.675-1.258,1.419-1.749,2.185c-2.88-2.676-6.494-4.406-9.812-6.473
		c-3.279-2.042-6.366-4.376-9.315-6.869c6.084,0.572,12.326,0.715,18.574,0.762c0.089,0.002,0.176,0.004,0.263,0.006
		c1.545,0.849,3.098,1.687,4.629,2.557c1.517,0.861,2.967,1.896,4.447,2.843C87.83,156.768,85.263,158.133,83.86,160.623z
		 M92.089,161.153c1.925-0.49,3.979-0.324,5.884,0.155c2.612,0.658,6.114,2.682,5.114,5.818c-0.667,2.094-3.562,3.809-5.434,4.483
		c-2.642,0.952-5.506,1.032-8.212,0.351c-1.864-0.471-4.058-1.695-4.746-3.602c-0.615-1.707,0.111-3.307,1.149-4.715
		c0.101-0.016,0.197-0.014,0.301-0.049C88.201,162.895,89.973,161.691,92.089,161.153z M105.743,183.491
		c-1.363-1.248-2.981-2.321-4.363-3.367c-1.378-1.043-2.791-2.038-4.217-3.019c2.868-0.668,5.567-1.99,7.659-3.895
		c3.078,3.197,6.312,6.234,9.646,9.164c0.24,0.211,0.526,0.487,0.836,0.792C112.118,183.297,108.931,183.403,105.743,183.491z
		 M120.543,182.916c-1.45-1.014-3.076-1.891-4.004-2.611c-3.548-2.754-6.976-5.668-10.259-8.729c0.158-0.2,0.358-0.367,0.504-0.577
		c3.68-5.296,0.628-11.062-4.702-13.601c-2.081-0.99-4.813-1.588-7.568-1.623c-0.057-0.077-0.102-0.156-0.188-0.227
		c-2.048-1.664-4.723-2.738-7.07-3.938c-0.521-0.267-1.057-0.517-1.582-0.777c4.975,0.076,9.948,0.231,14.922,0.38
		c4.802,6.34,10.43,11.963,16.229,17.424c4.71,4.435,9.512,9.381,14.642,13.639C127.826,182.521,124.185,182.739,120.543,182.916z
		 M137.363,181.809c-4.64-5.326-11.151-9.631-16.387-14.082c-6.074-5.162-12.192-10.512-17.593-16.443
		c0.838,0.025,1.675,0.036,2.513,0.064c3.018,0.1,6.478,0.516,10.028,0.849c-0.104,0.368-0.058,0.778,0.285,1.14
		c5.057,5.338,9.274,11.416,13.895,17.123c3.021,3.73,7.324,9.868,12.46,10.914C140.831,181.523,139.096,181.67,137.363,181.809z
		 M145.326,181.203c-0.227-0.014-0.454-0.025-0.704-0.001c-0.089,0.009-0.178,0.013-0.266,0.022
		c0.645-0.625,0.515-1.967-0.266-2.557c-4.8-3.633-8.868-6.882-12.833-11.529c-4.182-4.899-8.047-10.08-12.527-14.717
		c2.593,0.189,5.187,0.274,7.652,0.112c0.016,0.166,0.065,0.339,0.182,0.519c2.813,4.367,5.928,8.473,9.354,12.377
		c2.679,3.056,6.721,8.553,10.985,9.254c0.163,0.025,0.326-0.022,0.489-0.053C146.764,176.875,146.092,179.081,145.326,181.203z
		 M147.984,172.34c-2.366-3.043-6.376-5.123-9.112-7.906c-3.692-3.75-6.971-7.93-10.026-12.209c1.643-0.248,3.233-0.59,4.665-1.188
		c0.801-0.334,1.457-1.123,1.749-1.98c0.921,0.744,2.291,0.549,3.166-0.33c1.031,1.143,2.057,2.291,3.103,3.422
		c2.191,2.371,5.58,7.104,8.969,7.906C149.81,164.262,148.999,168.385,147.984,172.34z M150.985,156.809
		c-0.748-0.705-1.637-1.289-2.456-1.947c-1.791-1.436-3.506-2.967-5.205-4.51c-1.337-1.213-2.598-2.512-3.856-3.809
		c1.493-4.078,2.383-8.585,2.979-13.257c1.132,1.06,2.26,2.12,3.396,3.172c1.801,1.668,4.201,4.593,6.737,6.038
		C152.153,147.316,151.665,152.119,150.985,156.809z M152.965,138.055c-2.099-1.719-4.39-3.289-6.416-4.951
		c-1.163-0.955-2.409-2.141-3.703-3.198c0.41-4.343,0.574-8.782,0.696-13.173c1.489,1.007,2.912,2.117,4.296,3.32
		c2.08,1.811,3.903,3.898,5.924,5.766C153.529,129.876,153.277,133.961,152.965,138.055z M154.246,117.055
		c-0.076,1.438-0.162,2.916-0.241,4.371c-3.036-2.963-6.646-5.572-10.372-7.512c0.081-3.344,0.179-6.583,0.315-9.74
		c1.232,0.961,2.472,1.914,3.693,2.859c2.075,1.605,4.361,3.533,6.898,4.505C154.441,113.377,154.343,115.217,154.246,117.055z
		 M154.75,107.576c-3.636-2.298-7.074-4.859-10.604-7.29c0.021-0.304,0.026-0.638,0.049-0.938c0.295-3.895,0.554-7.793,0.795-11.691
		c1.739,0.776,3.894,3.036,4.601,3.719c1.913,1.846,3.612,4.183,5.683,5.934C155.107,100.73,154.933,104.154,154.75,107.576z
		 M155.489,92.565c-2.993-3.071-7.225-6.62-10.339-7.308c0.153-2.599,0.274-5.199,0.395-7.799c1.597,1.237,3.327,2.329,5.019,3.311
		c1.668,0.967,3.41,1.87,5.273,2.13C155.725,86.122,155.634,89.344,155.489,92.565z M145.7,74.059
		c0.163-4.063,0.243-8.129,0.304-12.194c1.309,1.478,2.681,2.895,4.188,4.212c1.743,1.523,3.757,3.404,5.972,4.505
		c-0.051,3.017-0.119,6.033-0.21,9.048C152.311,78.259,148.848,76.333,145.7,74.059z"/>
</g>
<g>
</g>
<g>
</g>
<g>
</g>
<g>
</g>
<g>
</g>
<g>
</g>
<g>
</g>
<g>
</g>
<g>
</g>
<g>
</g>
<g>
</g>
<g>
</g>
<g>
</g>
<g>
</g>
<g>
</g>
</svg>
