<?xml version="1.0" encoding="utf-8"?>
<!-- Generator: Adobe Illustrator 15.0.0, SVG Export Plug-In . SVG Version: 6.00 Build 0)  -->
<!DOCTYPE svg PUBLIC "-//W3C//DTD SVG 1.1//EN" "http://www.w3.org/Graphics/SVG/1.1/DTD/svg11.dtd">
<svg version="1.1" id="Layer_1" xmlns="http://www.w3.org/2000/svg" xmlns:xlink="http://www.w3.org/1999/xlink" x="0px" y="0px"
	 width="318.353px" height="58.896px" viewBox="0 0 318.353 58.896" enable-background="new 0 0 318.353 58.896"
	 xml:space="preserve">
<polygon fill="#FFFFFF" points="111.677,31.277 111.677,34.835 115.361,34.835 115.361,42.528 104.844,42.528 104.844,34.835 
	108.486,34.835 108.486,31.277 94.491,31.277 94.491,34.835 98.174,34.835 98.174,54.64 94.491,54.64 94.491,58.201 108.486,58.201 
	108.486,54.64 104.844,54.64 104.844,45.964 115.361,45.964 115.361,54.64 111.677,54.64 111.677,58.201 125.713,58.201 
	125.713,54.64 122.029,54.64 122.029,34.835 125.713,34.835 125.713,31.277 "/>
<g>
	<defs>
		<rect id="SVGID_1_" width="318.353" height="58.896"/>
	</defs>
	<clipPath id="SVGID_2_">
		<use xlink:href="#SVGID_1_"  overflow="visible"/>
	</clipPath>
	<path clip-path="url(#SVGID_2_)" fill="#FFFFFF" d="M125.959,48.707c0-5.933,4.46-10.106,10.392-10.106
		c6.097,0,10.312,4.011,10.312,9.901c0,5.934-4.42,10.107-10.353,10.107C130.215,58.609,125.959,54.64,125.959,48.707
		 M140.115,48.585c0-5.156-1.268-7.202-3.927-7.202c-2.578,0-3.683,2.087-3.683,7.241c0,5.197,1.309,7.201,3.928,7.201
		C139.053,55.826,140.115,53.74,140.115,48.585"/>
	<path clip-path="url(#SVGID_2_)" fill="#FFFFFF" d="M154.355,49.402c0.245,4.461,2.045,5.934,5.115,5.934
		c2.25,0,3.723-0.941,4.582-3.354h3.151c-0.737,4.008-3.438,6.627-8.798,6.627c-6.384,0-10.272-3.928-10.272-9.82
		c0-5.81,4.297-10.188,10.067-10.188c6.464,0,9.494,4.582,9.207,10.801H154.355z M154.396,46.824h7.161
		c-0.205-3.887-1.269-5.44-3.477-5.44C155.952,41.383,154.642,42.734,154.396,46.824"/>
	<path clip-path="url(#SVGID_2_)" fill="#FFFFFF" d="M199.36,49.402c0.245,4.461,2.044,5.934,5.115,5.934
		c2.249,0,3.722-0.941,4.581-3.354h3.15c-0.736,4.008-3.436,6.627-8.796,6.627c-6.386,0-10.272-3.928-10.272-9.82
		c0-5.81,4.298-10.188,10.066-10.188c6.465,0,9.493,4.582,9.207,10.801H199.36z M199.4,46.824h7.162
		c-0.206-3.887-1.271-5.44-3.48-5.44C200.956,41.383,199.646,42.734,199.4,46.824"/>
	<path clip-path="url(#SVGID_2_)" fill="#FFFFFF" d="M213.352,54.763h2.823V42.447h-2.823v-3.438h8.429v4.951
		c1.147-3.561,3.356-5.32,5.975-5.32c2.374,0,3.887,1.76,3.887,3.766c0,2.046-1.39,3.52-3.19,3.52c-1.802,0-3.191-1.023-3.191-2.906
		c0-0.082,0.04-0.205,0.04-0.326c-1.064,0.08-2.454,1.309-3.151,3.683v8.388h3.562v3.438h-12.359V54.763z"/>
	<path clip-path="url(#SVGID_2_)" fill="#FFFFFF" d="M260.238,42.324v3.438h-2.54c-1.35,2.455-2.985,4.746-4.704,6.545
		c1.391,1.924,2.004,2.375,2.986,2.375c1.024,0,1.596-0.613,2.209-2.537l2.252,0.696c-0.779,3.354-2.498,6.015-6.097,6.015
		c-2.454,0-3.848-0.818-5.852-3.314c-2.169,2.209-4.666,3.314-7.692,3.314c-5.402,0-8.554-3.11-8.554-7.119
		c0-3.93,2.783-5.975,6.302-7.326c-1.881-1.922-2.822-3.395-2.822-5.646c0-3.56,3.23-6.628,8.101-6.628
		c4.666,0,7.079,2.863,7.079,5.606c0,3.107-2.333,4.582-5.318,5.891c2.292,2.209,4.01,4.174,5.646,6.506
		c1.147-1.35,2.21-2.904,2.989-4.42h-2.823v-3.395H260.238z M246.815,53.617c-2.007-2.864-4.296-5.4-6.548-7.57
		c-1.35,1.065-2.086,2.496-2.086,4.542c0,2.702,1.718,4.501,4.542,4.501C244.072,55.089,245.422,54.64,246.815,53.617
		 M243.91,42.078c1.595-1.146,2.374-2.496,2.374-4.213c0-1.679-0.819-3.07-2.703-3.07c-1.43,0-2.534,1.023-2.534,2.537
		S241.945,40.114,243.91,42.078"/>
	<path clip-path="url(#SVGID_2_)" fill="#FFFFFF" d="M262.588,44.902c0-8.388,5.974-14.282,13.012-14.282
		c3.438,0,6.015,1.188,7.65,3.193l0.859-3.11h3.685v10.72h-4.053c-1.636-4.952-3.928-7.446-7.325-7.446
		c-3.844,0-6.544,2.823-6.544,10.515c0,7.367,2.822,10.516,7.446,10.516c4.051,0,6.383-3.068,7.079-7.568h3.967
		c-0.693,6.955-4.704,11.416-11.987,11.416C267.988,58.855,262.588,53.208,262.588,44.902"/>
	<path clip-path="url(#SVGID_2_)" fill="#FFFFFF" d="M289.795,48.707c0-5.933,4.461-10.106,10.392-10.106
		c6.096,0,10.312,4.011,10.312,9.901c0,5.934-4.418,10.107-10.352,10.107C294.05,58.609,289.795,54.64,289.795,48.707
		 M303.95,48.585c0-5.156-1.267-7.202-3.926-7.202c-2.577,0-3.683,2.087-3.683,7.241c0,5.197,1.311,7.201,3.928,7.201
		C302.89,55.826,303.95,53.74,303.95,48.585"/>
	<path clip-path="url(#SVGID_2_)" fill="#FFFFFF" d="M311.029,55.294c0-2.046,1.596-3.642,3.682-3.642
		c2.047,0,3.643,1.556,3.643,3.56c0,2.047-1.596,3.684-3.682,3.684C312.625,58.896,311.029,57.298,311.029,55.294"/>
	<path clip-path="url(#SVGID_2_)" fill="#FFFFFF" d="M168.472,54.763h2.782V42.447h-3.478v-3.438h3.478v-0.163
		c0-6.303,4.437-9.167,9.47-9.167c1.574,0,3.075,0.321,4.133,0.801l5.091-0.906v25.188h3.111v3.438h-11.435v-3.438h2.455V42.447
		h-6.956v12.316h2.455v3.438h-11.106V54.763z M176.983,39.009h7.096v-2.332c-1.719-0.04-2.864-0.982-2.864-2.783
		c0-0.572,0.204-1.31,0.532-1.678c-0.287-0.122-0.696-0.244-1.311-0.244c-2.045,0-3.453,1.022-3.453,5.687V39.009z"/>
	<polygon clip-path="url(#SVGID_2_)" fill="#FFFFFF" points="113.859,7.595 117.513,20.812 117.736,20.812 121.455,7.595 
		118.816,7.595 118.816,4.862 126.92,4.862 126.92,7.625 124.537,7.625 118.88,25.897 113.956,25.897 110.522,14.237 
		106.329,25.897 101.5,25.897 96.033,7.625 93.396,7.625 93.396,4.862 104.073,4.862 104.073,7.595 101.53,7.595 105.216,20.876 
		105.47,20.876 109.315,10.295 108.521,7.595 106.17,7.595 106.17,4.862 116.591,4.862 116.591,7.595 	"/>
	<path clip-path="url(#SVGID_2_)" fill="#FFFFFF" d="M129.058,18.938c0.19,3.464,1.589,4.608,3.971,4.608
		c1.748,0,2.892-0.73,3.559-2.605h2.446c-0.571,3.114-2.668,5.146-6.831,5.146c-4.958,0-7.975-3.05-7.975-7.625
		c0-4.513,3.337-7.912,7.816-7.912c5.022,0,7.372,3.558,7.149,8.388H129.058z M129.089,16.937h5.561
		c-0.16-3.018-0.985-4.226-2.701-4.226C130.297,12.71,129.279,13.759,129.089,16.937"/>
	<path clip-path="url(#SVGID_2_)" fill="#FFFFFF" d="M141.455,6.548h-2.161V3.812h6.831v10.01c0.922-1.938,2.479-3.272,4.735-3.272
		c1.684,0,2.86,0.604,3.781,1.525c1.367,1.366,2.033,3.56,2.033,6.228c0,2.669-0.793,4.861-2.127,6.197
		c-0.986,1.016-2.384,1.587-3.973,1.587c-2.638,0-4.226-1.239-5.211-3.145l-1.461,3.05h-2.447V6.548z M151.686,18.367
		c0-3.177-0.826-4.861-2.669-4.861c-2.034,0-3.178,2.224-3.178,5.084c0,2.923,1.177,4.893,3.178,4.893
		C150.859,23.483,151.686,21.735,151.686,18.367"/>
	<path clip-path="url(#SVGID_2_)" fill="#FFFFFF" d="M157.823,23.102h2.161v-9.564h-2.701v-2.669h2.701v-0.445
		c0-4.576,3.336-6.801,7.054-6.801c3.21,0,4.64,1.303,4.64,3.082c0,1.304-0.953,2.352-2.352,2.352c-1.367,0-2.319-0.763-2.319-2.192
		c0-0.446,0.19-0.985,0.476-1.271c-0.19-0.096-0.476-0.191-0.794-0.191c-1.334,0-2.255,0.858-2.255,3.845v1.621h4.479v2.669h-4.257
		v9.564h3.146v2.669h-9.979V23.102z"/>
	<path clip-path="url(#SVGID_2_)" fill="#FFFFFF" d="M217.652,20.587h2.639c1.303,2.003,2.741,3.336,4.554,3.336
		c1.333,0,1.938-0.57,1.938-1.492c0-1.145-0.827-1.59-3.782-2.352c-3.561-0.922-5.437-2.067-5.437-4.736
		c0-2.605,2.099-4.8,5.403-4.8c1.94,0,3.242,0.731,4.164,1.843l0.604-1.78h2.48v5.086h-2.64c-1.145-1.778-2.478-3.02-4.068-3.02
		c-1.24,0-1.875,0.574-1.875,1.43c0,1.082,0.857,1.496,3.688,2.227c3.242,0.856,5.562,1.906,5.562,4.863
		c0,2.574-2.003,4.895-5.628,4.895c-2.32,0-3.599-0.954-4.554-2.035l-0.604,1.715h-2.447V20.587z"/>
	<path clip-path="url(#SVGID_2_)" fill="#FFFFFF" d="M169.009,18.396c0-4.61,3.465-7.852,8.073-7.852c4.737,0,8.01,3.117,8.01,7.692
		c0,4.609-3.432,7.852-8.041,7.852C172.313,26.087,169.009,23.002,169.009,18.396 M180.007,18.298c0-4.004-0.986-5.594-3.052-5.594
		c-2.003,0-2.86,1.621-2.86,5.625c0,4.039,1.017,5.594,3.051,5.594S180.007,22.302,180.007,18.298"/>
	<path clip-path="url(#SVGID_2_)" fill="#FFFFFF" d="M186.107,23.099h2.194v-9.567h-2.194v-2.669h6.549v3.907
		c1.049-2.477,2.67-4.195,5.404-4.195c3.21,0,4.545,2.163,4.545,5.246v7.278h2.13v2.668h-8.486v-2.668h1.685v-6.645
		c0-1.016-0.191-1.778-0.668-2.255c-0.35-0.319-0.826-0.508-1.462-0.508c-1.494,0-2.861,1.493-2.861,3.622v5.786h1.653v2.668h-8.488
		V23.099z"/>
	<path clip-path="url(#SVGID_2_)" fill="#FFFFFF" d="M211.506,7.016v3.847h4.95v2.669h-4.95v7.501c0,1.367,0.477,2.129,1.557,2.129
		c0.953,0,1.431-0.762,1.824-2.651l1.907,0.539c-0.553,3.48-2.11,5.038-5.099,5.038c-3.242,0-4.831-1.687-4.831-5.087v-7.469h-2.639
		v-2.669h2.733V7.555L211.506,7.016z"/>
	<path clip-path="url(#SVGID_2_)" fill="#FFFFFF" d="M236.414,6.539h-2.161V3.805h6.834v10.013c0.921-1.939,2.479-3.275,4.734-3.275
		c1.687,0,2.862,0.606,3.784,1.528c1.367,1.367,2.033,3.559,2.033,6.228c0,2.671-0.794,4.863-2.13,6.199
		c-0.984,1.016-2.382,1.59-3.973,1.59c-2.638,0-4.228-1.242-5.212-3.148l-1.462,3.05h-2.448V6.539z M246.648,18.364
		c0-3.179-0.827-4.864-2.671-4.864c-2.032,0-3.177,2.224-3.177,5.084c0,2.926,1.176,4.898,3.177,4.898
		C245.821,23.482,246.648,21.732,246.648,18.364"/>
	<path clip-path="url(#SVGID_2_)" fill="#FFFFFF" d="M256.947,27.834c0,0.414-0.129,0.859-0.286,1.176
		c1.302-0.156,2.099-0.762,3.021-2.988c-1.75-3.654-5.977-12.49-5.977-12.49h-1.973v-2.669h9.316v2.669h-2.258l3.336,7.786
		l3.021-7.786h-1.907v-2.669h6.517v2.669h-1.812l-5.086,11.824c-1.524,3.591-3.211,5.943-6.673,5.943
		c-2.703,0-4.103-1.399-4.103-3.305c0-1.493,0.985-2.672,2.446-2.672C256.15,25.322,256.947,26.596,256.947,27.834"/>
	<path clip-path="url(#SVGID_2_)" fill="#FFFFFF" d="M82.542,41.132c-2.626,0-4.924-1.402-6.183-3.585
		c-2.22,1.227-4.421,3.123-6.658,5.96c3.648,4.24,6.108,5.959,8.891,5.959c2.968,0,6.744-2.375,8.142-9.781
		C85.567,40.59,84.12,41.132,82.542,41.132"/>
	<path clip-path="url(#SVGID_2_)" fill="#FFFFFF" d="M54.282,15.85c-2.28,0-3.907,1.847-3.907,4.25c0,3.239,2.194,5.329,5.445,8.445
		c1.636-2.403,2.589-4.832,2.589-7.15C58.409,18.102,56.688,15.85,54.282,15.85"/>
	<path clip-path="url(#SVGID_2_)" fill="#FFFFFF" d="M59.702,32.381c2.264,2.328,4.079,4.406,5.831,6.562
		c2.826-4.704,3.491-8.078,0.174-11.406C64.403,29.002,62.457,30.52,59.702,32.381"/>
	<path clip-path="url(#SVGID_2_)" fill="#FFFFFF" d="M31.597,45.791c0-6.037,4.13-10.527,11.726-13.135
		c-2.947-3.195-4.419-5.718-4.419-9.89c0-6.185,6.077-12.165,15.67-12.165c8.816,0,13.586,5.568,13.586,10.612
		c0,1.841-0.366,3.373-1.339,4.892c3.927-0.217,6.802,1.444,7.039,5.224c2.388-3.457,5.115-5.384,8.682-5.384
		c0.456,0,0.879,0.032,1.311,0.117c-2.841-4.241-7.382-7.48-13.185-9.065C69.276,6.831,61.417,0,51.594,0
		C43.368,0,36.16,4.87,32.98,11.891c-1.301-0.354-2.668-0.597-4.071-0.597c-7.845,0-14.307,5.949-15.11,13.581
		C5.986,26.142,0,33.232,0,41.42c0,9.103,7.479,16.78,17.434,16.78h24.192C35.767,56.337,31.597,51.593,31.597,45.791"/>
	<path clip-path="url(#SVGID_2_)" fill="#FFFFFF" d="M62.211,52.585c-2.543,2.795-5.42,4.625-8.711,5.615h16.013
		C67.243,57.298,64.994,55.554,62.211,52.585"/>
	<path clip-path="url(#SVGID_2_)" fill="#FFFFFF" d="M52.452,50.074c2.181,0,3.822-0.527,5.432-1.809
		c-4.007-4.992-8.098-9.217-10.678-11.782c-1.507,1.661-2.283,3.599-2.283,5.833C44.923,46.714,48.08,50.074,52.452,50.074"/>
</g>
</svg>
